<svg width="32" height="32" viewBox="0 0 32 32" fill="none" xmlns="http://www.w3.org/2000/svg">
  <rect width="32" height="32" rx="6" fill="#0F172A"/>
  <path d="M8 12C8 10.3431 9.34315 9 11 9H13C14.6569 9 16 10.3431 16 12V20C16 21.6569 14.6569 23 13 23H11C9.34315 23 8 21.6569 8 20V12Z" fill="#3B82F6"/>
  <path d="M16 12C16 10.3431 17.3431 9 19 9H21C22.6569 9 24 10.3431 24 12V20C24 21.6569 22.6569 23 21 23H19C17.3431 23 16 21.6569 16 20V12Z" fill="#06B6D4"/>
  <circle cx="12" cy="16" r="2" fill="white"/>
  <circle cx="20" cy="16" r="2" fill="white"/>
</svg>